<?xml version="1.0" encoding="utf-8"?>
<!-- Generator: Adobe Illustrator 18.1.0, SVG Export Plug-In . SVG Version: 6.00 Build 0)  -->
<!DOCTYPE svg PUBLIC "-//W3C//DTD SVG 1.1//EN" "http://www.w3.org/Graphics/SVG/1.1/DTD/svg11.dtd">
<svg version="1.1" id="Layer_1" xmlns="http://www.w3.org/2000/svg" xmlns:xlink="http://www.w3.org/1999/xlink" x="0px" y="0px"
   viewBox="0 0 249.231 58" enable-background="new 0 0 249.231 58" xml:space="preserve">
<path d="M171.76,29.093c-1.585,2.424-10.48,10.136-15.281,10.136c-1.119,0-1.864-0.326-1.864-1.072c0-3.025,6.169-8.493,7.16-8.493
  c0.186,0,0.361,0.256,0.361,0.485c0,0.448-2.353,3.128-3.076,3.804c0,0.233,0.28,0.688,0.897,0.688c0.967,0,6.187-4.439,6.187-6.013
  c0-0.326-0.886-1.328-1.585-1.713c-0.186-0.489-1.48-2.497-2.633-2.497c-1.751,0-5.735,2.875-8.358,6.566
  c-3.094,2.736-6.916,6.002-7.462,6.002c-0.431,0-0.513-0.319-0.513-0.606c0-1.176,3.66-5.935,6.643-9.097
  c0-1.358-2.145-2.865-3.824-2.865c-0.765,0-3.564,4.313-5.848,8.282c-2.564,2.222-5.07,4.287-5.504,4.287
  c-0.431,0-0.513-0.319-0.513-0.606c0-1.434,3.072-6.809,6.354-11.803c2.347-0.24,4.234-0.537,5.198-0.87
  c1.159-0.4,0.512-2.063,0.512-2.063c-1.061,0.006-2.334,0.018-3.742,0.023c1.841-2.643,3.567-4.889,4.658-5.95
  c0-0.722-2.144-2.579-3.76-2.579c-0.978,0-3.654,3.79-6.509,8.483c-7.194-0.16-15.321-0.813-18.138-3.188
  c-0.262-0.221-0.665-1.367-1.143-1.379c-0.361-0.009-0.815,1.346-0.846,2.62c-0.045,1.85,0.171,3.843,1.581,4.654
  c0.854,0.492,3.454,0.753,6.749,0.837c-2.587,1.491-6.093,4.785-7.003,5.745c-0.155-0.117,0.049-0.419,0.084-0.454
  c0.105-0.116,1.035-2.034,1.111-3.026c0.124-1.631-1.554-3.014-3.635-3.014c-0.022,0.167-0.379,1.098-1.062,2.576
  c-3.016,5.57-11.466,12.121-13.495,12.121c-0.647,0-0.901-0.224-0.901-0.845c0-0.368,0.191-0.92,0.497-1.571
  c0.278,0.148,0.71,0.288,1.398,0.288c1.981,0,8.457-5.72,8.606-8.359c-0.117-0.741-0.863-1.471-1.648-1.97
  c-0.489-0.722-1.622-2.24-2.546-2.24c-2.783,0-7.469,4.985-9.671,10.003c-1.552,1.46-3.059,2.566-3.851,2.566
  c-0.34,0-0.429-0.353-0.429-0.637c0-1.313,4.307-7.64,5.562-9.166c0-1.061-2.221-2.765-3.574-2.765
  c-1.444,0-7.315,5.905-12.092,11.42c0.322-2.715,9.905-16.6,13.308-19.909c0-1.133-2.153-3.059-3.971-2.79
  c-1.638,0.242-8.265,11.015-12.353,18.664c-2.884,2.528-6.04,5.184-6.533,5.184c-0.431,0-0.513-0.319-0.513-0.606
  c0-1.536,3.601-7.591,7.194-12.857c1.584-0.263,2.908-0.558,3.755-0.863c1.154-0.415,0.486-2.07,0.486-2.07
  c-0.704,0.013-1.453,0.033-2.22,0.053c1.588-2.192,3.03-4.006,3.977-4.927c0-0.722-1.564-2.91-3.971-2.579
  c-0.897,0.123-3.229,3.405-5.817,7.603c-5.513-0.011-11.13-0.473-13.955-2.794c-0.265-0.218-0.683-1.358-1.161-1.364
  c-0.361-0.004-0.798,1.356-0.813,2.63c-0.022,1.85,0.221,3.84,1.641,4.634c0.388,0.217,1.027,0.376,1.839,0.489
  c-3.595,5.245-9.943,12.743-10.835,12.743c-0.14,0-0.528-0.186-0.528-0.699c0-1.849,6.516-9.446,7.774-10.471
  c0-0.948-2.027-3.107-3.472-3.107c-1.926,0-10.001,12.678-10.001,16.313c0,1.725,1.799,3.822,3.663,3.822
  c1.352,0,7.897-8.226,7.99-8.335c0.093-0.109,0.177,0.101,0.177,0.209c0,0.109-2.144,3.869-2.144,4.304
  c0,3.387,2.609,3.822,3.013,3.822c1.004,0,5.218-4.182,8.996-8.156c-1.072,2.172-1.767,3.79-1.811,4.334
  c-0.208,2.59,1.841,3.822,2.797,3.822c0.938,0,4.712-3.429,8.35-6.959c-0.735,1.559-1.18,2.697-1.18,3.137
  c0,3.099,2.2,3.822,3.155,3.822c0.71,0,1.832-2.144,2.95-3.822c2.424-3.123,5.533-6.701,8.297-8.856
  c0.391-0.305,0.629,0.023,0.629,0.186c-0.396,0.594-5.034,6.921-5.034,8.669c0,1.958,1.13,3.822,3.135,3.822
  c0.734,0,3.651-2.591,6.552-5.408c0,0.001,0,0.001,0,0.001c-0.402,1.996,1.057,5.407,4.227,5.407c2.094,0,7.531-4.956,10.898-8.638
  c-1.025,1.711-2.231,3.561-3.673,5.53c0,1.181,1.429,3.107,2.268,3.107c1.643,0,5.047-5.469,6.001-6.991
  c0.859-1.417,5.734-5.902,6.332-5.902c0.4,0,0.363,0.402,0.363,0.402c-0.186,0.28-4.418,5.935-4.418,8.669
  c0,1.802,1.208,3.822,2.909,3.822c0.794,0,4.406-2.935,8.002-6.09c-0.478,1.109-0.76,1.917-0.76,2.268
  c0,3.099,1.841,3.822,2.797,3.822c0.818,0,3.795-2.609,6.955-5.618c-0.44,0.908-0.705,1.562-0.705,1.796
  c0,3.099,1.841,3.822,2.797,3.822c1.022,0,5.403-4.063,9.312-7.897c-0.012,0.038-0.029,0.075-0.04,0.113
  c-0.932,4.428,2.152,7.784,6.386,7.784c4.987,0,15.194-7.085,15.194-11.279C173.018,31.097,172.272,29.093,171.76,29.093z
   M109.515,28.916c0.432,0,0.429,0.368,0.268,0.757c-0.268,0.647-3.434,5.226-5.889,5.45
  C105.486,32.403,108.453,28.916,109.515,28.916z M64.619,36.985c-0.249,0-0.451-0.326-0.451-0.606c0-1.895,5.345-8.604,6.075-9.443
  c0-0.967-1.604-1.962-2.99-2.453c2.411,0.145,5.653,0.03,8.8-0.242c-1.143,1.96-2.274,3.979-3.3,5.88
  C69.64,33.128,65.33,36.985,64.619,36.985z M133.031,32.769c-2.656,2.241-5.321,4.232-6.178,4.232c-0.598,0-0.448-0.436-0.435-0.59
  c0.093-1.108,2.492-5.21,5.45-8.374c0-0.639-0.587-1.984-1.277-2.842c2.162-0.011,4.46-0.08,6.669-0.195
  C135.719,27.672,134.232,30.409,133.031,32.769z"/>
<path d="M152.596,23.941c1.491,0,6.704-6.121,6.704-7.007c0-1.515-2.097-4.265-3.845-4.265c-0.606,0-0.503,1.007-0.699,2.385
  c-0.233,1.639-2.299,5.834-3.791,7.582C150.964,23.125,151.617,23.941,152.596,23.941z"/>
<path d="M59.391,15.385c0-1.473-2.915-3.927-4.682-3.927c-0.851,0.933-3.826,4.247-6.428,6.791
  c-0.841,0.904-6.914,5.897-14.423,10.881c-9.482-0.343-21.867-0.227-23.637,0.829c-1.348,0.804-1.479,3.997-1.462,4.57
  c0.041,1.434,0.574,2.216,1.052,2.202c0.478-0.014,0.879-0.892,1.181-1.055c2.733-1.475,9.825-2.365,16.983-2.85
  c-6.783,4.004-13.915,7.258-19.084,7.258c-0.72,0-3.843,0.054-5.597-0.982c-2.291-6.836-3.658-5.469-3.207-2.422
  c0.139,0.939,1.879,9.845,10.31,9.845c6.484,0,18.919-8.005,27.259-14.133c1.783-0.041,3.408-0.055,4.777-0.048
  c-1.506,2.724-2.906,5.458-2.906,6.064c0,2.717,2.257,4.778,3.599,4.778c0.524,0,0.812-0.951,0.949-1.342
  c1.922-5.478,7.142-15.67,9.36-18.721C54.923,21.055,59.391,16.089,59.391,15.385z M45.894,26.457
  c-0.349,0.502-1.145,1.817-2.059,3.403c-0.605-0.105-1.434-0.204-2.44-0.295c2.111-1.647,3.66-2.952,4.322-3.599
  C45.911,25.966,46.037,26.253,45.894,26.457z"/>
<g>
  <path d="M174.468,40.27h0.36c0.421,0,0.621,0.161,0.68,0.521c0.101,0.381,0.161,0.68,0.261,0.8h0.822
    c-0.081-0.12-0.14-0.32-0.241-0.821c-0.099-0.44-0.28-0.68-0.6-0.8v-0.04c0.399-0.121,0.68-0.401,0.68-0.761
    c0-0.32-0.14-0.58-0.319-0.72c-0.241-0.14-0.52-0.24-1.141-0.24c-0.541,0-0.962,0.04-1.262,0.1v3.283h0.761V40.27z M174.488,38.789
    c0.08-0.02,0.22-0.041,0.421-0.041c0.481,0,0.701,0.2,0.701,0.501c0,0.34-0.341,0.48-0.761,0.48h-0.36V38.789z"/>
  <path d="M174.988,43.192c1.902,0,3.363-1.461,3.363-3.323c0-1.821-1.46-3.283-3.363-3.283c-1.881,0-3.382,1.461-3.382,3.283
    C171.606,41.731,173.107,43.192,174.988,43.192z M174.988,37.247c1.462,0,2.522,1.181,2.522,2.643c0,1.441-1.059,2.601-2.502,2.601
    c-1.48,0-2.562-1.161-2.562-2.622C172.446,38.428,173.528,37.247,174.988,37.247z"/>
</g>
<g>
  <path d="M226.594,27.89c0-0.588-0.433-1.008-1.284-1.008h-1.583v2.051h1.583
    C226.162,28.933,226.594,28.513,226.594,27.89z"/>
  <path d="M215.063,26.81c-1.476,0-2.507,1.116-2.507,2.795c0,1.715,1.043,2.83,2.507,2.83
    c1.475,0,2.519-1.115,2.519-2.83C217.581,27.926,216.549,26.81,215.063,26.81z"/>
  <path d="M225.586,30.204h-1.859v2.171h1.859c0.815,0,1.331-0.372,1.331-1.104
    C226.917,30.564,226.39,30.204,225.586,30.204z"/>
  <path d="M220.231,0c-16.016,0-29,12.984-29,29c0,16.016,12.984,29,29,29s29-12.984,29-29
    C249.231,12.984,236.247,0,220.231,0z M208.258,31.056c0,1.919-1.116,2.914-2.867,2.914c-1.223,0-2.194-0.587-2.83-1.654
    l1.367-0.888c0.324,0.588,0.768,0.947,1.367,0.947c0.731,0,1.151-0.492,1.151-1.355v-5.589h1.812V31.056z M215.063,33.97
    c-2.543,0-4.354-1.822-4.354-4.365c0-2.519,1.811-4.317,4.354-4.317c2.555,0,4.354,1.799,4.354,4.317
    C219.416,32.148,217.618,33.97,215.063,33.97z M225.622,33.827h-3.694v-8.396h3.526c2.026,0,2.962,0.947,2.962,2.255
    c0,0.876-0.479,1.451-1.259,1.787c0.923,0.3,1.571,0.924,1.571,1.955C228.729,32.975,227.517,33.827,225.622,33.827z
     M234.131,33.97c-1.259,0-2.542-0.419-3.346-0.923l0.863-1.415c0.743,0.443,1.631,0.755,2.471,0.755
    c0.899,0,1.367-0.371,1.367-0.911c0-1.571-4.533-0.516-4.533-3.694c0-1.379,1.139-2.494,3.082-2.494
    c1.104,0,2.087,0.264,3.022,0.707l-0.672,1.428c-0.743-0.372-1.523-0.552-2.267-0.552c-0.804,0-1.283,0.384-1.283,0.888
    c0,1.547,4.533,0.455,4.533,3.693C237.37,32.867,236.29,33.97,234.131,33.97z"/>
</g>
</svg>
