<svg xmlns="http://www.w3.org/2000/svg" viewBox="0 0 112.02 20"><defs><style>.cls-1{fill:#fff;}</style></defs><title>5star-filled-white</title><g id="Layer_2" data-name="Layer 2"><g id="Layer_1-2" data-name="Layer 1"><path class="cls-1" d="M10.53,16.07,17,20l-1.73-7.4,5.75-5L13.48,7l-3-7-3,7L0,7.62l5.75,5L4,20Z"/><path class="cls-1" d="M33.27,16.07,39.77,20,38,12.6l5.75-5L36.23,7l-3-7-3,7-7.57.64,5.75,5L26.76,20Z"/><path class="cls-1" d="M56,16.07,62.51,20l-1.73-7.4,5.75-5L59,7,56,0l-3,7-7.57.64,5.75,5L49.5,20Z"/><path class="cls-1" d="M78.75,16.07,85.26,20l-1.73-7.4,5.75-5L81.71,7l-3-7-3,7-7.57.64,5.75,5L72.24,20Z"/><path class="cls-1" d="M101.49,16.07,108,20l-1.73-7.4,5.75-5L104.45,7l-3-7-3,7L91,7.62l5.75,5L95,20Z"/></g></g></svg>