<svg xmlns="http://www.w3.org/2000/svg" viewBox="0 0 112.02 20"><title>5star-border-black</title><g id="Layer_2" data-name="Layer 2"><g id="Layer_1-2" data-name="Layer 1"><path d="M21.05,7.62,13.48,7l-3-7-3,7L0,7.62l5.75,5L4,20l6.51-3.93L17,20l-1.72-7.4ZM10.53,14.11l-4,2.39L7.62,12,4.13,9l4.61-.4,1.79-4.24,1.8,4.25,4.61.4-3.49,3,1.05,4.51Z"/><path d="M43.79,7.62,36.23,7l-3-7-3,7-7.57.64,5.75,5L26.76,20l6.51-3.93L39.77,20l-1.72-7.4ZM33.27,14.11l-4,2.39L30.36,12,26.87,9l4.61-.4,1.79-4.24,1.8,4.25,4.61.4-3.49,3,1.05,4.51Z"/><path d="M66.54,7.62,59,7,56,0l-3,7-7.57.64,5.75,5L49.5,20,56,16.07,62.51,20,60.8,12.6ZM56,14.11l-4,2.39L53.1,12,49.61,9l4.61-.4L56,4.32l1.8,4.25,4.61.4-3.49,3L60,16.51Z"/><path d="M89.28,7.62,81.71,7l-3-7-3,7-7.57.64,5.75,5L72.24,20l6.51-3.93L85.26,20l-1.72-7.4ZM78.75,14.11l-4,2.39L75.84,12,72.35,9,77,8.56l1.79-4.24,1.8,4.25,4.61.4-3.49,3,1.05,4.51Z"/><path d="M112,7.62,104.45,7l-3-7-3,7L91,7.62l5.75,5L95,20l6.51-3.93L108,20l-1.72-7.4Zm-10.53,6.48-4,2.39L98.59,12,95.09,9l4.61-.4,1.79-4.24,1.8,4.25,4.61.4-3.49,3,1.05,4.51Z"/></g></g></svg>