<svg xmlns="http://www.w3.org/2000/svg" viewBox="0 0 28.001 24"><title>heart2e</title><path d="M26.001,7.313C26.001,2.922,23.032,2,20.532,2c-2.328,0-4.953,2.516-5.766,3.484a1.03226,1.03226,0,0,1-1.531,0C12.423,4.515,9.798,2,7.469,2,4.969,2,2,2.922,2,7.313c0,2.859,2.891,5.516,2.922,5.547L14,21.61l9.063-8.734C23.11,12.829,26.001,10.173,26.001,7.313Zm2,0c0,3.75-3.437,6.891-3.578,7.031l-9.734,9.375a.98275.98275,0,0,1-1.376,0l-9.75-9.406C3.438,14.204,0,11.063,0,7.313,0,2.735,2.797,0,7.469,0,10.203,0,12.766,2.156,14,3.375,15.234,2.156,17.797,0,20.531,0,25.203,0,28,2.734,28,7.313Z"/></svg>