<svg xmlns="http://www.w3.org/2000/svg" viewBox="0 0 20 40"><title>heart1sq-grayl-red</title><rect y="20" width="20" height="20" style="fill:none"/><path d="M18.36054,23.20117a5.3005,5.3005,0,0,0-7.04039,0l-1.31971,1.21158L8.67956,23.20117a5.299,5.299,0,0,0-7.03923,0,4.83943,4.83943,0,0,0,0,7.26247l8.3601,7.67292,8.3601-7.67292A4.84113,4.84113,0,0,0,18.36054,23.20117Z" style="fill:#c03a2b"/><rect width="20" height="20" style="fill:none"/><path d="M18.36054,3.20117a5.3005,5.3005,0,0,0-7.04039,0L10.00044,4.41274,8.67956,3.20117a5.299,5.299,0,0,0-7.03923,0,4.83943,4.83943,0,0,0,0,7.26247l8.3601,7.67292,8.3601-7.67292A4.84113,4.84113,0,0,0,18.36054,3.20117Z" style="fill:#bdc3c7"/></svg>