<svg xmlns="http://www.w3.org/2000/svg" viewBox="0 0 17.20075 13.99525"><title>heart1e</title><path d="M15.79075,1.15125a4.55641,4.55641,0,0,0-6.055,0l-1.135,1.041-1.136-1.041a4.55509,4.55509,0,0,0-6.054,0,4.161,4.161,0,0,0,0,6.245l7.19,6.599,7.19-6.599A4.16245,4.16245,0,0,0,15.79075,1.15125Zm-1.066,5.219-6.124,5.715-6.125-5.715a2.72933,2.72933,0,0,1-.856-2.094,2.44313,2.44313,0,0,1,.756-1.999,3.03,3.03,0,0,1,2.063-.777,3.22448,3.22448,0,0,1,2.062.978l2.1,1.825,2.099-1.826a3.22928,3.22928,0,0,1,2.063-.978,3.03,3.03,0,0,1,2.063.777,2.44235,2.44235,0,0,1,.755,1.999A2.72794,2.72794,0,0,1,14.72475,6.37025Z"/></svg>