<svg xmlns="http://www.w3.org/2000/svg" viewBox="0 0 17.20075 27.991"><title>heart1s-gray-red</title><path d="M15.79075,15.146a4.55863,4.55863,0,0,0-6.055,0l-1.135,1.042-1.136-1.042a4.55731,4.55731,0,0,0-6.054,0,4.16209,4.16209,0,0,0,0,6.246l7.19,6.599,7.19-6.599A4.16356,4.16356,0,0,0,15.79075,15.146Z" style="fill:#c03a2b"/><path d="M15.79075,1.1505a4.55863,4.55863,0,0,0-6.055,0l-1.135,1.042-1.136-1.042a4.55731,4.55731,0,0,0-6.054,0,4.16209,4.16209,0,0,0,0,6.246l7.19,6.599,7.19-6.599A4.16356,4.16356,0,0,0,15.79075,1.1505Z" style="fill:#bdc3c7"/></svg>