<svg xmlns="http://www.w3.org/2000/svg" viewBox="0 0 400 400"><title>simple-3-square-white-black</title><circle cx="185.99671" cy="196.46599" r="168.5" style="fill:#fff"/><path d="M0,0V400H400V0ZM241.75,230.1499a112.54821,112.54821,0,0,1-4.5,33,68.52336,68.52336,0,0,1-13.4248,25.0498,58.60977,58.60977,0,0,1-22.2749,15.89941Q188.19751,309.64795,170.5,309.6499a128.17743,128.17743,0,0,1-15.8999-.97559,142.89014,142.89014,0,0,1-16.3501-3.0752q.45044-5.99707,1.05029-12,.59766-5.99707,1.0498-12a8.60367,8.60367,0,0,1,2.625-5.32422,8.79724,8.79724,0,0,1,6.2251-2.02539,28.54946,28.54946,0,0,1,6.6748,1.0498,43.15425,43.15425,0,0,0,10.42529,1.0498,42.9742,42.9742,0,0,0,15.1499-2.47461,25.654,25.654,0,0,0,11.0249-7.875,36.29,36.29,0,0,0,6.67529-14.02539,83.97065,83.97065,0,0,0,2.25-20.9248V90.3501H241.75Z"/></svg>